<?xml version="1.0" standalone="no"?>
<!DOCTYPE svg PUBLIC "-//W3C//DTD SVG 20010904//EN"
 "http://www.w3.org/TR/2001/REC-SVG-20010904/DTD/svg10.dtd">
<svg version="1.0" xmlns="http://www.w3.org/2000/svg"
 width="512.000000pt" height="512.000000pt" viewBox="0 0 512.000000 512.000000"
 preserveAspectRatio="xMidYMid meet">
<metadata>
Created by potrace 1.14, written by Peter Selinger 2001-2017
</metadata>
<g transform="translate(0.000000,512.000000) scale(0.100000,-0.100000)"
fill="#000000" stroke="none">
<path d="M0 2560 l0 -2560 2560 0 2560 0 0 2560 0 2560 -2560 0 -2560 0 0
-2560z m3374 2337 c-50 -95 -67 -172 -62 -293 2 -57 6 -105 8 -108 14 -13 330
-28 475 -22 306 12 551 64 765 164 63 29 184 104 218 135 l22 20 0 -44 c0
-155 -39 -537 -81 -789 -94 -567 -254 -980 -488 -1257 -122 -144 -291 -249
-454 -282 l-89 -17 76 -71 c84 -78 201 -143 296 -163 30 -6 65 -13 77 -16 l23
-4 -34 -93 c-66 -179 -120 -283 -249 -477 -200 -301 -446 -517 -762 -670 -195
-94 -427 -159 -634 -176 l-81 -7 0 174 0 174 88 18 c447 92 800 408 946 848
50 148 68 294 64 492 -4 196 -18 238 -105 317 -69 63 -123 80 -259 80 l-103 0
-3 363 c-5 409 -6 416 -83 574 -85 172 -254 321 -438 384 -489 168 -1005 -173
-1034 -683 l-6 -98 247 0 247 0 24 -25 c28 -27 34 -88 12 -116 -27 -36 -52
-39 -291 -39 l-236 0 0 -85 0 -85 225 0 c240 0 282 -7 304 -48 20 -37 13 -86
-15 -113 -25 -24 -27 -24 -270 -27 l-244 -3 0 -84 0 -85 239 0 239 0 31 -26
c24 -20 31 -34 31 -61 0 -93 -30 -103 -315 -103 l-225 0 0 -85 0 -85 239 0
239 0 31 -26 c41 -34 44 -92 6 -129 l-24 -25 -236 0 c-129 0 -235 -2 -235 -3
0 -2 9 -29 19 -60 104 -300 367 -505 686 -531 310 -26 620 154 756 439 66 137
72 172 77 443 l4 242 90 0 c165 0 198 -39 198 -231 0 -229 -31 -380 -111 -548
-110 -232 -271 -397 -494 -507 -163 -80 -274 -107 -455 -108 -85 0 -170 5
-205 12 -293 64 -537 230 -694 472 -72 111 -114 207 -148 339 -21 80 -26 127
-30 281 -5 211 2 237 70 273 l37 19 0 90 0 90 -37 -7 c-88 -16 -175 -83 -221
-170 -27 -50 -27 -51 -27 -265 0 -170 4 -232 18 -298 85 -387 323 -708 654
-880 103 -54 270 -109 373 -124 l80 -12 0 -352 0 -351 53 -7 c28 -3 247 -6
485 -6 l433 0 24 -24 c46 -46 45 -109 -2 -152 l-26 -24 -849 0 -850 0 -29 29
c-41 41 -41 101 0 142 28 28 34 29 115 29 148 0 262 38 307 102 34 47 39 149
10 206 -39 77 -92 117 -210 157 -481 165 -866 508 -1086 968 -131 273 -184
523 -185 860 0 465 128 861 389 1202 63 83 212 236 297 306 123 101 458 314
632 402 504 256 1055 392 1603 396 l167 1 -34 -63z"/>
</g>
</svg>
