<svg xmlns="http://www.w3.org/2000/svg" viewBox="62.125011596679684 91.94735717773438 450.75 412.5976438522339"><rect height="100%" width="100%" x="62.125011596679684" y="91.94735717773438" fill="rgba(42, 42, 42, 1)"/> <svg xmlns="http://www.w3.org/2000/svg" xmlns:xlink="http://www.w3.org/1999/xlink" version="1.1" id="Layer_1" x="236.3380243003915" y="161.94735717773438" viewBox="255.19998168945312 214.76077270507812 541.7000732421875 581.3392333984375" xml:space="preserve" height="151.99999999999997" width="141.63578001249823" preserveAspectRatio="xMinYMin" enable-background="new 0 0 1000 1000" style="overflow: visible;"><path class="st0" d="M367.3,291.1c-1,0.7-2.1,1.4-3.1,2.1c-22.1,13.4-41.6,30.5-57.9,50.3c-31.9,39-51.1,88.9-51.1,143.3V501  c0,92.8,55.8,172.5,135.6,207.5c9.2,4,18.8,7.5,28.6,10.3c9.5,5.8,17.8,14.5,17.8,27.3c0,17.8-15.8,23.5-29,25.2h-17.5  c-6.8,0-12.4,5.5-12.4,12.4c0,6.8,5.5,12.4,12.4,12.4h195.4c6.8,0,12.4-5.5,12.4-12.4c0-6.8-5.5-12.4-12.4-12.4h-79h-24v-0.1h-9.3  v-86.1c-76.6-7.4-136.7-73.3-136.7-153.1v-21.6c0-20.1,15.5-36.5,35-37.7v22.4c-7.2,1.1-12.8,7.5-12.8,15.3V532  c0,72.6,57.9,131.7,129.1,131.7S617.6,604.6,617.6,532v-21.6c0-8.5-6.7-15.5-15-15.5h-19.4v41.5c0,52.3-42.4,94.7-94.7,94.7  c-44.5,0-81.8-30.7-92-72.1h52.4c6,0,11-4.9,11-11c0-6-4.9-11-11-11h-55.1c0-0.3,0-0.5,0-0.8v-12.7v-7.8h55.1c6,0,11-4.9,11-11  c0-6.1-4.9-11-11-11h-55.1v-6.6v-14.7h55.1c6,0,11-4.9,11-11c0-6.1-4.9-11-11-11h-55.1v-21.2h55.1c6,0,11-4.9,11-11  c0-6-4.9-11-11-11h-55.1V402c0-29.2,13.2-55.3,33.9-72.6c-4.2-3.7-8.8-7.2-13.6-10.4C398.3,309.2,383,299.8,367.3,291.1z" style="fill: #FF360C;"></path><path class="st1" d="M619.3,271.7c-0.4-0.1-0.9-0.1-1.3-0.2c-3.4-16.5-2.7-36.7,10.7-56.3c0,0-136.9-10.9-261.4,75.9  c15.7,8.7,31.1,18.1,46.8,27.9c4.9,3.2,9.4,6.7,13.6,10.4c16.4-13.8,37.6-22.1,60.8-22.1c52.3,0,94.7,42.4,94.7,94.7v70.5h19.4  c20.5,0,37.3,16.9,37.3,37.8V532c0,78.5-58,143.4-132.7,152.8v42.3c77.2-3.9,144.2-46.6,182-109c17-25,25.8-48.6,30-63.3  c-36-2.6-56.7-31.1-56.7-31.1c52.1-3.9,83.5-51.5,101.8-98.3c11.4-30.5,18.9-63.3,23.7-92.9c8.7-53.7,8.9-97,8.9-97  S748.4,286.5,619.3,271.7z" style="fill: #FF360C; fill-opacity: 1;"></path><path class="st2" d="M532.5,259.6c0.1,0.1,0.3,0.3,0.4,0.4c-13.5-2.4-27.4-3.7-41.6-3.7c-130.4,0-236.1,106.4-236.1,237.6  c0,89.2,48.9,166.9,121.1,207.6c4.7,2.5,9.6,4.8,14.5,7c9.2,4,18.8,7.5,28.6,10.3c1.4,0.9,2.8,1.8,4.2,2.8c16.1,4.8,32.9,8,50.2,9.3  v-45.8c-76.6-7.4-136.7-73.3-136.7-153.1v-21.6c0-20.1,15.5-36.5,35-37.7v22.4c-7.2,1.1-12.8,7.5-12.8,15.3V532  c0,72.6,57.9,131.7,129.1,131.7c71.2,0,129.2-59.1,129.2-131.7v-21.6c0-8.5-6.7-15.5-15-15.5h-19.4v41.5c0,52.3-42.4,94.7-94.7,94.7  c-44.5,0-81.8-30.7-92-72.1h52.4c6,0,11-4.9,11-11c0-6-4.9-11-11-11h-55.1c0-0.3,0-0.5,0-0.8v-12.7v-7.8h55.1c6,0,11-4.9,11-11  c0-6.1-4.9-11-11-11h-55.1v-6.6v-14.7h55.1c6,0,11-4.9,11-11c0-6.1-4.9-11-11-11h-55.1v-21.2h55.1c6,0,11-4.9,11-11  c0-6-4.9-11-11-11h-55.1V402c0-52.3,42.4-94.7,94.7-94.7c52.3,0,94.7,42.4,94.7,94.7v70.5h19.4c20.5,0,37.3,16.9,37.3,37.8V532  c0,78.5-58,143.4-132.7,152.8v42.3c0,0-0.1,0-0.1,0.1c0,0.2,0.1,0.5,0.1,0.7c0,0.9,0,1.8,0,2.8c123-8.2,220.3-111.2,220.3-237.1  C727.4,376.5,643.3,279.2,532.5,259.6z" style="fill: #B52E18; fill-opacity: 0;"></path></svg> <svg y="423.0250015258789" viewBox="-0.08000000566244125 4.130000114440918 252.4600067138672 11.519999504089355" x="161.26999725341796" height="11.519999504089355" width="252.4600067138672" style="overflow: visible;"><g fill="#ff510c" fill-opacity="1" style=""><path d="M2.06 15.49L-0.08 15.49L4.96 4.29L7.01 4.29L12.06 15.49L9.89 15.49L5.55 5.39L6.38 5.39L2.06 15.49ZM9.41 12.90L2.24 12.90L2.80 11.26L8.85 11.26L9.41 12.90ZM28.11 15.65L28.11 15.65Q26.83 15.65 25.74 15.22Q24.64 14.80 23.83 14.02Q23.02 13.25 22.58 12.19Q22.13 11.14 22.13 9.89L22.13 9.89Q22.13 8.64 22.58 7.58Q23.02 6.53 23.84 5.75Q24.66 4.98 25.74 4.55Q26.83 4.13 28.13 4.13L28.13 4.13Q29.50 4.13 30.64 4.60Q31.78 5.07 32.56 6L32.56 6L31.22 7.26Q30.61 6.61 29.86 6.28Q29.10 5.95 28.22 5.95L28.22 5.95Q27.34 5.95 26.62 6.24Q25.89 6.53 25.35 7.06Q24.82 7.58 24.52 8.30Q24.22 9.02 24.22 9.89L24.22 9.89Q24.22 10.75 24.52 11.47Q24.82 12.19 25.35 12.72Q25.89 13.25 26.62 13.54Q27.34 13.82 28.22 13.82L28.22 13.82Q29.10 13.82 29.86 13.50Q30.61 13.17 31.22 12.50L31.22 12.50L32.56 13.78Q31.78 14.69 30.64 15.17Q29.50 15.65 28.11 15.65ZM49.25 15.65L49.25 15.65Q47.94 15.65 46.83 15.22Q45.73 14.78 44.91 14.01Q44.10 13.23 43.65 12.18Q43.20 11.14 43.20 9.89L43.20 9.89Q43.20 8.64 43.65 7.59Q44.10 6.54 44.91 5.77Q45.73 4.99 46.83 4.56Q47.94 4.13 49.23 4.13L49.23 4.13Q50.54 4.13 51.64 4.56Q52.74 4.99 53.55 5.77Q54.37 6.54 54.82 7.59Q55.26 8.64 55.26 9.89L55.26 9.89Q55.26 11.14 54.82 12.19Q54.37 13.25 53.55 14.02Q52.74 14.78 51.64 15.22Q50.54 15.65 49.25 15.65ZM49.23 13.82L49.23 13.82Q50.08 13.82 50.80 13.54Q51.52 13.25 52.05 12.71Q52.58 12.18 52.87 11.46Q53.17 10.75 53.17 9.89L53.17 9.89Q53.17 9.02 52.87 8.31Q52.58 7.60 52.05 7.06Q51.52 6.53 50.80 6.24Q50.08 5.95 49.23 5.95L49.23 5.95Q48.38 5.95 47.67 6.24Q46.96 6.53 46.42 7.06Q45.89 7.60 45.59 8.31Q45.30 9.02 45.30 9.89L45.30 9.89Q45.30 10.74 45.59 11.46Q45.89 12.18 46.42 12.71Q46.94 13.25 47.66 13.54Q48.38 13.82 49.23 13.82ZM71.73 15.65L71.73 15.65Q69.42 15.65 68.12 14.35Q66.82 13.06 66.82 10.61L66.82 10.61L66.82 4.29L68.90 4.29L68.90 10.53Q68.90 12.26 69.64 13.04Q70.38 13.82 71.74 13.82L71.74 13.82Q73.10 13.82 73.84 13.04Q74.58 12.26 74.58 10.53L74.58 10.53L74.58 4.29L76.62 4.29L76.62 10.61Q76.62 13.06 75.32 14.35Q74.02 15.65 71.73 15.65ZM92.45 15.65L92.45 15.65Q91.14 15.65 89.94 15.27Q88.74 14.90 88.03 14.30L88.03 14.30L88.75 12.69Q89.42 13.22 90.42 13.57Q91.41 13.92 92.45 13.92L92.45 13.92Q93.33 13.92 93.87 13.73Q94.42 13.54 94.67 13.21Q94.93 12.88 94.93 12.46L94.93 12.46Q94.93 11.95 94.56 11.64Q94.19 11.33 93.61 11.14Q93.02 10.96 92.31 10.80Q91.60 10.64 90.89 10.42Q90.18 10.21 89.59 9.86Q89.01 9.52 88.64 8.94Q88.27 8.37 88.27 7.47L88.27 7.47Q88.27 6.56 88.76 5.80Q89.25 5.04 90.25 4.58Q91.25 4.13 92.78 4.13L92.78 4.13Q93.79 4.13 94.78 4.38Q95.78 4.64 96.51 5.12L96.51 5.12L95.86 6.74Q95.10 6.29 94.30 6.07Q93.50 5.86 92.77 5.86L92.77 5.86Q91.90 5.86 91.37 6.06Q90.83 6.27 90.58 6.61Q90.34 6.94 90.34 7.38L90.34 7.38Q90.34 7.89 90.70 8.20Q91.06 8.51 91.64 8.69Q92.22 8.86 92.94 9.03Q93.66 9.20 94.38 9.41Q95.09 9.62 95.67 9.95Q96.26 10.29 96.62 10.86Q96.98 11.44 96.98 12.32L96.98 12.32Q96.98 13.22 96.49 13.98Q96 14.74 94.99 15.19Q93.98 15.65 92.45 15.65ZM112.83 15.49L110.75 15.49L110.75 6.05L107.04 6.05L107.04 4.29L116.54 4.29L116.54 6.05L112.83 6.05L112.83 15.49ZM129.63 15.49L127.55 15.49L127.55 4.29L129.63 4.29L129.63 15.49ZM147.28 15.65L147.28 15.65Q146 15.65 144.90 15.22Q143.81 14.80 143 14.02Q142.19 13.25 141.74 12.19Q141.30 11.14 141.30 9.89L141.30 9.89Q141.30 8.64 141.74 7.58Q142.19 6.53 143.01 5.75Q143.82 4.98 144.91 4.55Q146 4.13 147.30 4.13L147.30 4.13Q148.67 4.13 149.81 4.60Q150.94 5.07 151.73 6L151.73 6L150.38 7.26Q149.78 6.61 149.02 6.28Q148.27 5.95 147.39 5.95L147.39 5.95Q146.51 5.95 145.78 6.24Q145.06 6.53 144.52 7.06Q143.98 7.58 143.69 8.30Q143.39 9.02 143.39 9.89L143.39 9.89Q143.39 10.75 143.69 11.47Q143.98 12.19 144.52 12.72Q145.06 13.25 145.78 13.54Q146.51 13.82 147.39 13.82L147.39 13.82Q148.27 13.82 149.02 13.50Q149.78 13.17 150.38 12.50L150.38 12.50L151.73 13.78Q150.94 14.69 149.81 15.17Q148.67 15.65 147.28 15.65ZM179.10 15.49L177.02 15.49L177.02 4.29L181.63 4.29Q183.12 4.29 184.18 4.77Q185.25 5.25 185.82 6.14Q186.40 7.04 186.40 8.27L186.40 8.27Q186.40 9.50 185.82 10.39Q185.25 11.28 184.18 11.75Q183.12 12.22 181.63 12.22L181.63 12.22L178.18 12.22L179.10 11.28L179.10 15.49ZM186.59 15.49L184.35 15.49L181.52 11.42L183.74 11.42L186.59 15.49ZM179.10 5.02L179.10 11.50L178.18 10.51L181.54 10.51Q182.91 10.51 183.61 9.92Q184.30 9.33 184.30 8.27L184.30 8.27Q184.30 7.20 183.61 6.62Q182.91 6.05 181.54 6.05L181.54 6.05L178.18 6.05L179.10 5.02ZM203.41 15.65L203.41 15.65Q202.10 15.65 200.99 15.22Q199.89 14.78 199.07 14.01Q198.26 13.23 197.81 12.18Q197.36 11.14 197.36 9.89L197.36 9.89Q197.36 8.64 197.81 7.59Q198.26 6.54 199.07 5.77Q199.89 4.99 200.99 4.56Q202.10 4.13 203.39 4.13L203.39 4.13Q204.70 4.13 205.80 4.56Q206.90 4.99 207.71 5.77Q208.53 6.54 208.98 7.59Q209.42 8.64 209.42 9.89L209.42 9.89Q209.42 11.14 208.98 12.19Q208.53 13.25 207.71 14.02Q206.90 14.78 205.80 15.22Q204.70 15.65 203.41 15.65ZM203.39 13.82L203.39 13.82Q204.24 13.82 204.96 13.54Q205.68 13.25 206.21 12.71Q206.74 12.18 207.03 11.46Q207.33 10.75 207.33 9.89L207.33 9.89Q207.33 9.02 207.03 8.31Q206.74 7.60 206.21 7.06Q205.68 6.53 204.96 6.24Q204.24 5.95 203.39 5.95L203.39 5.95Q202.54 5.95 201.83 6.24Q201.12 6.53 200.58 7.06Q200.05 7.60 199.75 8.31Q199.46 9.02 199.46 9.89L199.46 9.89Q199.46 10.74 199.75 11.46Q200.05 12.18 200.58 12.71Q201.10 13.25 201.82 13.54Q202.54 13.82 203.39 13.82ZM226.26 15.65L226.26 15.65Q224.98 15.65 223.88 15.22Q222.78 14.80 221.98 14.02Q221.17 13.25 220.72 12.19Q220.27 11.14 220.27 9.89L220.27 9.89Q220.27 8.64 220.72 7.58Q221.17 6.53 221.98 5.75Q222.80 4.98 223.89 4.55Q224.98 4.13 226.27 4.13L226.27 4.13Q227.65 4.13 228.78 4.60Q229.92 5.07 230.70 6L230.70 6L229.36 7.26Q228.75 6.61 228 6.28Q227.25 5.95 226.37 5.95L226.37 5.95Q225.49 5.95 224.76 6.24Q224.03 6.53 223.50 7.06Q222.96 7.58 222.66 8.30Q222.37 9.02 222.37 9.89L222.37 9.89Q222.37 10.75 222.66 11.47Q222.96 12.19 223.50 12.72Q224.03 13.25 224.76 13.54Q225.49 13.82 226.37 13.82L226.37 13.82Q227.25 13.82 228 13.50Q228.75 13.17 229.36 12.50L229.36 12.50L230.70 13.78Q229.92 14.69 228.78 15.17Q227.65 15.65 226.26 15.65ZM246.06 10.74L244.00 12.85L243.89 10.38L249.76 4.29L252.10 4.29L247.22 9.47L246.06 10.74ZM244.22 15.49L242.14 15.49L242.14 4.29L244.22 4.29L244.22 15.49ZM252.38 15.49L249.95 15.49L245.66 10.38L247.04 8.86L252.38 15.49Z" transform="translate(0, 0)"></path></g></svg> <svg y="350.9749984741211" viewBox="4.989999771118164 -0.14000000059604645 310.75 43.290000915527344" x="132.12501159667968" height="43.290000915527344" width="310.75" style="overflow: visible;"><g fill="#ffffff" fill-opacity="1" style=""><path d="M16.13 36L4.99 36L4.99 1.30L14.45 1.30Q19.58 1.30 23.21 2.88Q26.83 4.46 29.04 7.06Q31.25 9.65 32.28 12.79Q33.31 15.94 33.31 19.06L33.31 19.06Q33.31 22.99 31.94 26.11Q30.58 29.23 28.18 31.44Q25.78 33.65 22.68 34.82Q19.58 36 16.13 36L16.13 36ZM9.65 5.76L9.65 31.54L15.22 31.54Q18.10 31.54 20.52 30.67Q22.94 29.81 24.74 28.18Q26.54 26.54 27.55 24.17Q28.56 21.79 28.56 18.77L28.56 18.77Q28.56 15.55 27.50 13.13Q26.45 10.70 24.62 9.07Q22.80 7.44 20.50 6.60Q18.19 5.76 15.65 5.76L15.65 5.76L9.65 5.76ZM48.53 36L43.97 36L59.14-0.14L59.42-0.14L74.54 36L69.22 36L57.89 7.15L61.20 4.99L48.53 36ZM51.50 26.88L52.85 22.85L65.76 22.85L67.30 26.88L51.50 26.88ZM89.23 36L89.23 1.30L93.89 1.30L93.89 31.54L111.50 31.54L111.50 36L89.23 36ZM128.35 36L123.79 36L138.96-0.14L139.25-0.14L154.37 36L149.04 36L137.71 7.15L141.02 4.99L128.35 36ZM131.33 26.88L132.67 22.85L145.58 22.85L147.12 26.88L131.33 26.88ZM176.59 1.30L176.59 29.71Q176.59 33.94 174.98 36.91Q173.38 39.89 170.59 41.45Q167.81 43.01 164.21 43.15L164.21 43.15L164.21 43.15L164.21 38.64Q167.57 38.45 169.75 36.26Q171.94 34.08 171.94 29.57L171.94 29.57L171.94 1.30L176.59 1.30ZM195.26 36L190.70 36L205.87-0.14L206.16-0.14L221.28 36L215.95 36L204.62 7.15L207.94 4.99L195.26 36ZM198.24 26.88L199.58 22.85L212.50 22.85L214.03 26.88L198.24 26.88ZM240.48 36L235.97 36L235.97 0.19L236.02 0.19L254.21 26.02L252.24 25.63L270.38 0.19L270.48 0.19L270.48 36L265.87 36L265.87 10.75L266.16 13.10L253.06 31.63L252.96 31.63L239.66 13.10L240.48 10.94L240.48 36ZM289.73 36L285.17 36L300.34-0.14L300.62-0.14L315.74 36L310.42 36L299.09 7.15L302.40 4.99L289.73 36ZM292.70 26.88L294.05 22.85L306.96 22.85L308.50 26.88L292.70 26.88Z" transform="translate(0, 0)"></path></g></svg></svg>