<?xml version="1.0" encoding="UTF-8" standalone="no"?>
<svg
   viewBox="62.125011596679684 91.94735717773438 450.75 412.5976438522339"
   version="1.1"
   id="svg6"
   sodipodi:docname="Transparent Logo No Subtitle.svg"
   inkscape:version="1.3.2 (091e20e, 2023-11-25)"
   xmlns:inkscape="http://www.inkscape.org/namespaces/inkscape"
   xmlns:sodipodi="http://sodipodi.sourceforge.net/DTD/sodipodi-0.dtd"
   xmlns="http://www.w3.org/2000/svg"
   xmlns:svg="http://www.w3.org/2000/svg">
  <defs
     id="defs6" />
  <sodipodi:namedview
     id="namedview6"
     pagecolor="#ffffff"
     bordercolor="#000000"
     borderopacity="0.25"
     inkscape:showpageshadow="2"
     inkscape:pageopacity="0.0"
     inkscape:pagecheckerboard="0"
     inkscape:deskcolor="#d1d1d1"
     showgrid="false"
     inkscape:zoom="2.9471811"
     inkscape:cx="225.46969"
     inkscape:cy="206.29883"
     inkscape:window-width="2560"
     inkscape:window-height="1387"
     inkscape:window-x="0"
     inkscape:window-y="25"
     inkscape:window-maximized="1"
     inkscape:current-layer="svg6" />
  <svg
     version="1.1"
     id="Layer_1"
     x="236.3380243003915"
     y="161.94735717773438"
     viewBox="255.19998168945312 214.76077270507812 541.7000732421875 581.3392333984375"
     xml:space="preserve"
     height="151.99999999999997"
     width="141.63578001249823"
     preserveAspectRatio="xMinYMin"
     enable-background="new 0 0 1000 1000"
     style="overflow: visible;"><path
       class="st0"
       d="M367.3,291.1c-1,0.7-2.1,1.4-3.1,2.1c-22.1,13.4-41.6,30.5-57.9,50.3c-31.9,39-51.1,88.9-51.1,143.3V501  c0,92.8,55.8,172.5,135.6,207.5c9.2,4,18.8,7.5,28.6,10.3c9.5,5.8,17.8,14.5,17.8,27.3c0,17.8-15.8,23.5-29,25.2h-17.5  c-6.8,0-12.4,5.5-12.4,12.4c0,6.8,5.5,12.4,12.4,12.4h195.4c6.8,0,12.4-5.5,12.4-12.4c0-6.8-5.5-12.4-12.4-12.4h-79h-24v-0.1h-9.3  v-86.1c-76.6-7.4-136.7-73.3-136.7-153.1v-21.6c0-20.1,15.5-36.5,35-37.7v22.4c-7.2,1.1-12.8,7.5-12.8,15.3V532  c0,72.6,57.9,131.7,129.1,131.7S617.6,604.6,617.6,532v-21.6c0-8.5-6.7-15.5-15-15.5h-19.4v41.5c0,52.3-42.4,94.7-94.7,94.7  c-44.5,0-81.8-30.7-92-72.1h52.4c6,0,11-4.9,11-11c0-6-4.9-11-11-11h-55.1c0-0.3,0-0.5,0-0.8v-12.7v-7.8h55.1c6,0,11-4.9,11-11  c0-6.1-4.9-11-11-11h-55.1v-6.6v-14.7h55.1c6,0,11-4.9,11-11c0-6.1-4.9-11-11-11h-55.1v-21.2h55.1c6,0,11-4.9,11-11  c0-6-4.9-11-11-11h-55.1V402c0-29.2,13.2-55.3,33.9-72.6c-4.2-3.7-8.8-7.2-13.6-10.4C398.3,309.2,383,299.8,367.3,291.1z"
       style="fill: #FF360C;"
       id="path1" /><path
       class="st1"
       d="M619.3,271.7c-0.4-0.1-0.9-0.1-1.3-0.2c-3.4-16.5-2.7-36.7,10.7-56.3c0,0-136.9-10.9-261.4,75.9  c15.7,8.7,31.1,18.1,46.8,27.9c4.9,3.2,9.4,6.7,13.6,10.4c16.4-13.8,37.6-22.1,60.8-22.1c52.3,0,94.7,42.4,94.7,94.7v70.5h19.4  c20.5,0,37.3,16.9,37.3,37.8V532c0,78.5-58,143.4-132.7,152.8v42.3c77.2-3.9,144.2-46.6,182-109c17-25,25.8-48.6,30-63.3  c-36-2.6-56.7-31.1-56.7-31.1c52.1-3.9,83.5-51.5,101.8-98.3c11.4-30.5,18.9-63.3,23.7-92.9c8.7-53.7,8.9-97,8.9-97  S748.4,286.5,619.3,271.7z"
       style="fill: #FF360C; fill-opacity: 1;"
       id="path2" /><path
       class="st2"
       d="M532.5,259.6c0.1,0.1,0.3,0.3,0.4,0.4c-13.5-2.4-27.4-3.7-41.6-3.7c-130.4,0-236.1,106.4-236.1,237.6  c0,89.2,48.9,166.9,121.1,207.6c4.7,2.5,9.6,4.8,14.5,7c9.2,4,18.8,7.5,28.6,10.3c1.4,0.9,2.8,1.8,4.2,2.8c16.1,4.8,32.9,8,50.2,9.3  v-45.8c-76.6-7.4-136.7-73.3-136.7-153.1v-21.6c0-20.1,15.5-36.5,35-37.7v22.4c-7.2,1.1-12.8,7.5-12.8,15.3V532  c0,72.6,57.9,131.7,129.1,131.7c71.2,0,129.2-59.1,129.2-131.7v-21.6c0-8.5-6.7-15.5-15-15.5h-19.4v41.5c0,52.3-42.4,94.7-94.7,94.7  c-44.5,0-81.8-30.7-92-72.1h52.4c6,0,11-4.9,11-11c0-6-4.9-11-11-11h-55.1c0-0.3,0-0.5,0-0.8v-12.7v-7.8h55.1c6,0,11-4.9,11-11  c0-6.1-4.9-11-11-11h-55.1v-6.6v-14.7h55.1c6,0,11-4.9,11-11c0-6.1-4.9-11-11-11h-55.1v-21.2h55.1c6,0,11-4.9,11-11  c0-6-4.9-11-11-11h-55.1V402c0-52.3,42.4-94.7,94.7-94.7c52.3,0,94.7,42.4,94.7,94.7v70.5h19.4c20.5,0,37.3,16.9,37.3,37.8V532  c0,78.5-58,143.4-132.7,152.8v42.3c0,0-0.1,0-0.1,0.1c0,0.2,0.1,0.5,0.1,0.7c0,0.9,0,1.8,0,2.8c123-8.2,220.3-111.2,220.3-237.1  C727.4,376.5,643.3,279.2,532.5,259.6z"
       style="fill: #B52E18; fill-opacity: 0;"
       id="path3" /></svg>
  <svg
     y="350.9749984741211"
     viewBox="4.989999771118164 -0.14000000059604645 310.75 43.290000915527344"
     x="132.12501159667968"
     height="43.290000915527344"
     width="310.75"
     style="overflow: visible;"
     version="1.1"
     id="svg5">
    <g
       fill="#ffffff"
       fill-opacity="1"
       id="g5"
       style="">
      <path
         d="M16.13 36L4.99 36L4.99 1.30L14.45 1.30Q19.58 1.30 23.21 2.88Q26.83 4.46 29.04 7.06Q31.25 9.65 32.28 12.79Q33.31 15.94 33.31 19.06L33.31 19.06Q33.31 22.99 31.94 26.11Q30.58 29.23 28.18 31.44Q25.78 33.65 22.68 34.82Q19.58 36 16.13 36L16.13 36ZM9.65 5.76L9.65 31.54L15.22 31.54Q18.10 31.54 20.52 30.67Q22.94 29.81 24.74 28.18Q26.54 26.54 27.55 24.17Q28.56 21.79 28.56 18.77L28.56 18.77Q28.56 15.55 27.50 13.13Q26.45 10.70 24.62 9.07Q22.80 7.44 20.50 6.60Q18.19 5.76 15.65 5.76L15.65 5.76L9.65 5.76ZM48.53 36L43.97 36L59.14-0.14L59.42-0.14L74.54 36L69.22 36L57.89 7.15L61.20 4.99L48.53 36ZM51.50 26.88L52.85 22.85L65.76 22.85L67.30 26.88L51.50 26.88ZM89.23 36L89.23 1.30L93.89 1.30L93.89 31.54L111.50 31.54L111.50 36L89.23 36ZM128.35 36L123.79 36L138.96-0.14L139.25-0.14L154.37 36L149.04 36L137.71 7.15L141.02 4.99L128.35 36ZM131.33 26.88L132.67 22.85L145.58 22.85L147.12 26.88L131.33 26.88ZM176.59 1.30L176.59 29.71Q176.59 33.94 174.98 36.91Q173.38 39.89 170.59 41.45Q167.81 43.01 164.21 43.15L164.21 43.15L164.21 43.15L164.21 38.64Q167.57 38.45 169.75 36.26Q171.94 34.08 171.94 29.57L171.94 29.57L171.94 1.30L176.59 1.30ZM195.26 36L190.70 36L205.87-0.14L206.16-0.14L221.28 36L215.95 36L204.62 7.15L207.94 4.99L195.26 36ZM198.24 26.88L199.58 22.85L212.50 22.85L214.03 26.88L198.24 26.88ZM240.48 36L235.97 36L235.97 0.19L236.02 0.19L254.21 26.02L252.24 25.63L270.38 0.19L270.48 0.19L270.48 36L265.87 36L265.87 10.75L266.16 13.10L253.06 31.63L252.96 31.63L239.66 13.10L240.48 10.94L240.48 36ZM289.73 36L285.17 36L300.34-0.14L300.62-0.14L315.74 36L310.42 36L299.09 7.15L302.40 4.99L289.73 36ZM292.70 26.88L294.05 22.85L306.96 22.85L308.50 26.88L292.70 26.88Z"
         id="path5"
         transform="translate(0, 0)" />
    </g>
  </svg>
  <rect
     style="opacity:0;fill:#000000;fill-opacity:0"
     id="rect6"
     width="448.90353"
     height="328.78876"
     x="62.464321"
     y="92.965279" />
</svg>
